# xmcd CD database file
#
# Track frame offsets:
#	150
#	14735
#	33914
#	53223
#	74643
#	93957
#	114200
#	133538
#	149001
#	170667
#	187470
#	201821
#
# Disc length: 2918 seconds
#
# Revision: 0
# Processed by: cddbd v1.5.2PL0 Copyright (c) Steve Scherf et al.
# Submitted via: CDex 1.70beta2
#
DISCID=b90b640c
DTITLE=Pochi Y Su Cocoband - Llegaron Los Cocotuces
DYEAR=1991
DGENRE=Merengue
TTITLE0=Mujer Malvada
TTITLE1=La Ladrona
TTITLE2=Me Haces Falta
TTITLE3=Pinea (Chiquita)
TTITLE4=La Negra Viva
TTITLE5=Penas De Amores
TTITLE6=El Boche
TTITLE7=El Mujerón
TTITLE8=Happy Man
TTITLE9=Los Pantalones
TTITLE10=Mi Cucu
TTITLE11=Lotomanía
EXTD=YEAR: 1991
EXTT0=
EXTT1=
EXTT2=
EXTT3=
EXTT4=
EXTT5=
EXTT6=
EXTT7=
EXTT8=
EXTT9=
EXTT10=
EXTT11=
PLAYORDER=
